<?xml version="1.0" standalone="no"?>
<!DOCTYPE svg PUBLIC "-//W3C//DTD SVG 20010904//EN"
 "http://www.w3.org/TR/2001/REC-SVG-20010904/DTD/svg10.dtd">
<svg version="1.0" xmlns="http://www.w3.org/2000/svg"
 width="945.000000pt" height="1280.000000pt" viewBox="0 0 945.000000 1280.000000"
 preserveAspectRatio="xMidYMid meet">
<metadata>
Created by potrace 1.15, written by Peter Selinger 2001-2017
</metadata>
<g transform="translate(0.000000,1280.000000) scale(0.100000,-0.100000)"
fill="#000000" stroke="none">
<path d="M3576 12761 c-5 -33 -10 -39 -38 -46 l-33 -7 30 -13 29 -13 -64 -33
-65 -34 58 -3 c58 -3 71 -14 45 -40 -9 -9 1 -12 48 -12 l61 0 -5 -29 c-4 -27
-2 -29 18 -24 21 6 21 4 10 -18 -7 -13 -34 -58 -61 -99 -26 -41 -55 -92 -65
-112 -17 -37 -37 -48 -49 -28 -9 15 -25 12 -25 -5 0 -21 -13 -19 -35 5 -20 22
-35 18 -35 -11 0 -20 -15 -26 -25 -9 -11 17 -24 11 -31 -15 -7 -30 -5 -29 -48
-9 -42 21 -81 12 -99 -21 l-13 -26 -22 31 c-31 42 -42 38 -42 -17 l0 -47 -27
26 c-34 31 -67 49 -110 59 -34 7 -38 1 -36 -58 1 -16 -6 -16 -37 2 -36 20 -42
18 -38 -12 2 -21 -1 -27 -12 -24 -8 2 -26 5 -40 5 -23 1 -25 -3 -28 -47 -2
-32 2 -57 13 -73 l16 -24 -38 20 c-47 25 -123 28 -123 4 0 -14 -10 -15 -70 -9
-77 8 -100 -1 -100 -38 0 -19 -1 -19 -18 -4 -10 9 -33 20 -50 23 -32 6 -32 6
-32 -33 0 -22 7 -59 15 -82 8 -23 10 -39 4 -36 -13 9 -59 -22 -59 -40 0 -10
-12 -7 -45 12 -54 30 -70 26 -79 -18 -3 -18 -15 -38 -26 -46 -11 -8 -20 -25
-20 -38 0 -20 -8 -27 -41 -36 l-41 -13 24 -18 23 -18 -25 0 c-14 0 -43 -5 -65
-11 l-39 -11 28 -12 29 -12 -53 -13 -54 -14 38 -19 c31 -16 35 -22 26 -34 -7
-7 -31 -19 -54 -25 -61 -15 -126 -41 -126 -49 0 -9 69 -30 106 -32 20 -1 14
-3 -16 -7 -36 -5 -46 -10 -48 -27 -2 -16 -13 -24 -38 -28 -40 -8 -42 -16 -13
-42 l21 -19 -38 -5 -38 -5 66 -52 c92 -72 98 -85 48 -108 -22 -10 -40 -22 -40
-26 0 -14 45 -21 100 -17 44 3 49 1 44 -14 -9 -30 67 -24 105 8 24 20 31 22
31 10 0 -27 85 -21 137 10 34 19 50 23 69 17 25 -8 25 -9 -24 -41 -29 -18 -55
-45 -62 -62 -8 -18 -28 -39 -49 -49 -20 -11 -45 -28 -55 -40 -18 -20 -18 -21
-1 -21 15 0 13 -4 -9 -27 -16 -16 -25 -34 -23 -44 3 -10 -6 -27 -19 -40 -34
-32 -30 -39 24 -39 l47 0 -25 -20 c-28 -22 -21 -25 28 -11 34 10 42 2 17 -19
-8 -7 -15 -18 -15 -25 0 -6 -9 -20 -20 -30 -33 -30 -24 -38 35 -33 30 3 55 4
55 3 0 -2 -7 -19 -15 -39 -14 -33 -14 -36 2 -36 11 -1 6 -6 -13 -14 -43 -19
-49 -33 -17 -41 19 -4 23 -9 14 -14 -9 -6 -7 -10 8 -14 12 -3 21 -9 20 -14 -5
-31 3 -36 22 -13 l20 25 -7 -25 c-4 -14 -9 -26 -13 -28 -3 -1 -22 -12 -41 -25
l-35 -22 43 -3 c50 -4 53 -17 12 -57 -16 -16 -30 -32 -30 -37 0 -4 28 -8 63
-8 l62 0 -40 -25 -40 -24 40 0 c39 -1 82 7 135 24 14 4 -2 -11 -35 -33 -33
-22 -71 -52 -84 -66 l-24 -26 33 0 34 0 -35 -36 -34 -36 75 5 c41 3 86 8 100
13 22 7 20 2 -18 -41 -23 -26 -42 -52 -42 -57 0 -5 25 4 55 20 30 17 55 29 55
27 0 -1 -7 -19 -15 -38 -8 -20 -15 -39 -15 -42 0 -16 37 1 95 45 36 28 68 50
71 50 2 0 4 -12 4 -26 0 -20 4 -25 16 -20 9 3 20 6 25 6 5 0 30 19 54 41 31
29 45 37 45 25 0 -9 4 -16 9 -16 10 0 57 52 64 72 2 7 7 10 11 7 3 -3 -3 -26
-14 -50 -39 -86 -15 -117 49 -63 26 21 33 23 44 12 8 -7 12 -19 9 -26 -2 -8 5
-10 29 -5 24 5 31 3 27 -8 -3 -8 2 -20 9 -28 12 -11 11 -17 -8 -37 l-22 -24
46 0 c26 0 47 -3 47 -7 0 -4 -18 -28 -40 -54 -32 -38 -36 -48 -24 -53 27 -10
73 -7 109 8 35 15 35 15 21 -7 -8 -12 -17 -32 -21 -44 -6 -21 -3 -23 30 -23
20 0 53 9 74 20 l39 19 -21 -38 c-28 -50 -18 -76 25 -67 18 3 42 16 54 27 l22
20 6 -25 c12 -47 77 -46 101 0 12 23 65 30 65 8 0 -12 8 -13 35 -8 26 5 41 1
64 -15 16 -12 34 -21 40 -21 6 0 11 -11 11 -24 0 -26 14 -34 68 -38 33 -2 38
-7 24 -23 -5 -6 -13 -22 -20 -38 l-12 -27 41 6 c38 6 41 5 32 -12 -6 -10 -13
-34 -16 -51 -6 -31 -5 -33 22 -33 16 0 40 11 56 26 l28 25 -7 -25 c-6 -23 -3
-26 19 -26 15 0 36 11 50 26 19 21 25 23 25 10 0 -11 8 -16 26 -16 19 0 28 8
39 34 19 44 44 54 67 25 13 -15 25 -20 44 -16 24 4 25 3 19 -29 -5 -28 -3 -33
10 -28 12 5 15 -4 15 -50 0 -55 0 -56 29 -56 20 0 37 9 54 30 31 36 35 37 39
8 2 -12 15 -29 29 -37 24 -13 30 -13 64 5 21 11 46 35 56 53 l17 32 6 -28 c30
-148 32 -224 10 -388 -19 -131 -30 -164 -30 -83 0 72 -24 228 -35 228 -5 0
-29 -18 -52 -39 l-42 -39 3 39 c2 21 0 39 -5 39 -5 0 -43 -29 -84 -65 -76 -67
-89 -74 -89 -52 0 6 -9 23 -20 37 l-19 25 -51 -50 c-27 -27 -50 -43 -50 -36 0
8 -10 33 -22 57 -21 43 -21 43 -48 27 -32 -19 -60 -62 -60 -93 0 -19 -2 -20
-15 -10 -21 17 -62 4 -71 -22 l-7 -22 -18 23 -19 23 -17 -31 c-10 -17 -22 -31
-27 -31 -5 0 -7 3 -3 6 14 14 -25 65 -54 71 -16 3 -28 11 -25 17 16 37 28 87
23 92 -6 6 -55 -16 -135 -63 l-43 -26 6 39 c4 22 9 48 12 58 5 18 3 18 -30 -2
-19 -12 -37 -22 -40 -22 -3 0 1 23 8 50 l13 50 -30 0 c-16 0 -38 -5 -49 -10
-25 -14 -24 -2 3 27 19 21 20 26 8 34 -16 11 -103 7 -133 -6 -14 -6 -11 3 12
41 17 26 31 52 31 56 0 4 -24 -1 -52 -12 -29 -11 -54 -20 -55 -20 -1 0 0 14 4
30 5 29 4 30 -28 30 -31 0 -112 -19 -149 -34 -13 -5 -16 1 -16 31 0 20 -5 38
-11 40 -8 3 -6 13 5 33 13 22 14 35 7 56 -9 25 -6 32 25 60 19 18 31 36 27 40
-4 4 -34 10 -66 12 -53 4 -60 7 -65 28 -5 19 -13 24 -39 24 -17 0 -45 -7 -61
-15 -37 -20 -38 -19 -24 10 14 31 5 41 -26 27 -22 -10 -24 -8 -35 27 -6 21
-11 48 -11 60 0 30 -21 26 -58 -10 l-32 -31 0 27 0 27 -46 -26 c-30 -17 -62
-26 -89 -26 l-42 0 7 38 c4 20 10 44 12 52 3 8 3 12 1 8 -3 -5 -14 -1 -26 7
-33 23 -81 19 -116 -11 l-31 -26 0 26 c0 41 -17 39 -67 -7 l-48 -45 -3 51 c-3
61 -7 67 -27 41 -13 -16 -16 -17 -25 -4 -5 8 -10 23 -10 33 0 23 -12 22 -29
-4 -10 -18 -15 -19 -22 -8 -8 11 -18 5 -49 -29 l-39 -43 -15 30 c-19 36 -64
69 -104 77 -29 6 -30 5 -41 -45 -6 -29 -11 -61 -11 -71 0 -18 -12 -24 -47 -23
-17 1 -16 -9 2 -33 8 -10 15 -22 15 -26 0 -5 -30 -8 -67 -9 -38 0 -62 -3 -55
-6 20 -8 3 -23 -26 -23 -15 0 -33 -4 -41 -9 -14 -9 -4 -13 94 -37 27 -7 24 -9
-35 -20 -36 -6 -82 -19 -103 -27 -39 -17 -49 -37 -19 -37 18 -1 14 -5 -42 -46
-25 -17 -22 -20 51 -50 32 -13 51 -24 42 -24 -8 0 -40 -7 -70 -16 -43 -13 -50
-18 -34 -24 18 -7 17 -9 -10 -15 -48 -11 -207 -66 -239 -83 l-30 -14 38 -13
c48 -17 52 -22 25 -30 -28 -9 -7 -24 36 -26 27 -1 26 -2 -15 -15 -74 -23 -78
-26 -50 -34 23 -7 22 -8 -10 -9 -39 -1 -118 -21 -165 -42 l-30 -13 40 -5 40
-6 -67 -40 c-37 -22 -68 -43 -68 -47 0 -11 78 -20 111 -13 l32 7 -20 -28 c-12
-16 -30 -37 -42 -48 -27 -24 -19 -36 25 -36 23 0 34 -5 34 -14 0 -11 -11 -14
-42 -13 -42 2 -43 1 -57 -40 -9 -24 -19 -43 -22 -43 -4 0 -13 13 -20 29 -15
33 -29 32 -29 -2 0 -12 -5 -39 -11 -61 l-11 -38 -27 26 c-15 14 -30 26 -33 26
-3 0 -9 -22 -13 -50 l-7 -49 -25 30 c-21 25 -71 59 -86 59 -3 0 -8 -25 -12
-55 -6 -48 -9 -55 -25 -50 -15 5 -21 -2 -29 -32 -6 -21 -11 -48 -11 -60 0 -21
-4 -19 -41 17 -64 62 -74 55 -90 -65 -4 -33 -17 -88 -30 -122 l-22 -62 -27 38
c-33 45 -85 85 -100 76 -5 -3 -10 -18 -10 -32 0 -27 2 -26 -63 -6 -17 5 -17 3
3 -37 l22 -43 -56 6 -55 5 27 -24 27 -24 -44 15 c-24 8 -45 15 -48 15 -2 0 3
-13 12 -30 14 -27 14 -30 0 -30 -27 0 -16 -20 13 -21 l27 -1 -30 -8 -30 -7 30
-7 c17 -4 35 -9 40 -11 6 -1 -6 -7 -25 -12 -35 -10 -34 -10 30 -19 l65 -9 -65
-25 c-56 -21 -61 -25 -40 -30 21 -5 17 -8 -29 -19 -35 -9 -49 -16 -40 -22 10
-6 9 -12 -6 -29 -16 -18 -17 -24 -7 -41 11 -17 9 -21 -10 -28 -13 -5 -39 -16
-58 -25 l-35 -16 40 6 c22 3 52 8 68 11 25 5 22 0 -33 -58 -33 -34 -60 -66
-60 -70 0 -4 36 -10 79 -14 62 -5 78 -10 74 -21 -7 -18 33 -18 112 0 33 8 61
13 62 12 2 -1 -37 -34 -85 -73 -48 -39 -112 -97 -142 -128 l-55 -57 38 4 c36
4 48 -4 26 -18 -14 -9 -72 -134 -65 -141 3 -3 25 6 50 21 54 32 58 32 52 4 -3
-13 -8 -48 -11 -78 l-6 -54 38 46 c20 26 39 46 40 44 2 -2 -3 -43 -12 -91 -8
-49 -13 -90 -10 -93 7 -7 42 37 65 81 11 20 22 37 24 37 2 0 4 -31 5 -70 1
-38 5 -79 9 -90 7 -18 12 -13 47 40 l40 61 12 -46 c6 -26 13 -49 16 -51 6 -6
67 89 68 107 0 8 9 -13 18 -47 10 -33 24 -71 31 -84 l13 -24 17 34 17 33 9
-69 10 -69 20 39 21 38 22 -63 c13 -35 27 -68 31 -72 4 -5 13 13 20 40 l13 48
8 -46 c8 -51 29 -99 53 -118 17 -15 15 -19 36 58 7 26 15 39 19 33 7 -12 69
45 88 82 9 17 12 14 23 -20 7 -21 16 -43 20 -47 7 -8 32 56 43 108 l4 20 7
-20 c5 -11 10 -27 14 -35 4 -11 6 -10 9 5 13 70 12 70 52 -11 l39 -79 23 50
c12 28 25 75 29 105 l6 55 14 -42 c14 -46 25 -54 33 -24 3 12 18 21 42 25 34
7 41 4 61 -21 l23 -28 1 38 c0 40 22 49 28 11 2 -10 14 -27 27 -37 24 -17 24
-17 40 13 30 57 33 30 5 -37 l-29 -68 30 -3 c18 -2 41 5 59 18 l30 21 -10 -25
c-7 -20 -6 -26 5 -26 29 0 70 22 102 56 34 37 40 34 23 -10 -11 -31 -5 -32 35
-6 40 26 55 25 55 -5 0 -14 3 -25 6 -25 17 0 48 26 74 62 l30 41 0 -36 c0 -65
9 -71 42 -30 l31 38 -6 -43 c-5 -44 7 -107 23 -117 4 -3 18 10 30 29 19 31 24
34 55 29 27 -4 38 0 60 21 33 33 37 33 24 0 -5 -15 -8 -28 -6 -30 2 -3 23 2
45 10 l42 15 0 -25 c0 -19 4 -24 18 -20 9 2 31 7 49 11 l31 6 -12 -55 -13 -56
26 7 c14 3 34 10 43 14 26 14 28 12 28 -26 0 -27 4 -35 18 -35 22 0 64 28 89
58 l18 23 1 -41 c1 -33 8 -49 32 -72 39 -40 75 -33 93 17 l13 34 22 -30 23
-31 28 50 29 50 23 -41 23 -40 14 33 c8 18 14 42 14 54 1 18 2 19 13 6 7 -9
27 -27 46 -40 34 -23 35 -23 45 -4 21 37 82 89 144 122 l62 33 55 -17 c32 -10
67 -30 85 -49 l30 -31 -40 -33 c-44 -36 -47 -43 -24 -65 14 -15 10 -23 -50
-90 -36 -40 -63 -76 -59 -79 3 -4 17 -7 30 -7 28 0 30 -16 3 -32 -24 -15 -26
-28 -5 -28 15 0 21 -16 8 -22 -5 -2 -24 -21 -43 -42 -33 -36 -34 -38 -10 -32
17 4 12 0 -13 -14 -45 -25 -137 -111 -137 -128 0 -7 14 -12 30 -12 17 0 30 -2
30 -5 0 -3 -13 -29 -30 -58 -38 -67 -38 -79 -3 -71 23 6 25 5 18 -12 -4 -10
-10 -45 -13 -76 -3 -46 -1 -58 10 -58 8 0 19 5 26 12 9 9 12 7 12 -13 1 -13 7
-35 14 -48 l14 -24 26 26 26 26 0 -29 c0 -17 4 -30 8 -30 17 0 46 41 63 92 17
48 18 50 19 21 0 -20 5 -33 13 -33 20 1 54 33 72 70 17 33 18 34 26 12 15 -39
68 -22 84 28 6 18 8 18 21 5 9 -8 27 -15 42 -15 35 0 118 39 160 75 l33 28 -6
-26 c-6 -22 -4 -25 13 -21 17 5 20 -1 25 -65 6 -70 19 -111 37 -111 6 0 19 9
30 20 l20 20 0 -33 c0 -43 15 -57 62 -57 28 0 47 8 73 31 28 25 35 28 35 14 0
-15 6 -17 39 -11 36 6 40 4 49 -23 6 -16 20 -35 32 -41 20 -11 19 -13 -30 -68
-55 -61 -59 -72 -32 -72 15 0 19 -8 19 -47 0 -52 26 -83 69 -83 l24 0 -25 -50
c-14 -27 -25 -61 -25 -76 0 -25 2 -26 44 -23 42 4 43 3 35 -19 -17 -43 -12
-52 29 -52 21 0 47 7 58 15 29 22 34 18 18 -12 -28 -55 -13 -93 38 -93 31 0
98 53 98 79 0 10 7 4 19 -15 11 -18 23 -34 28 -37 4 -3 4 -83 0 -179 -4 -95
-6 -292 -4 -438 l3 -265 41 -185 c23 -102 47 -239 53 -305 6 -66 26 -238 45
-382 63 -479 63 -476 32 -961 -15 -235 -27 -488 -27 -562 0 -126 -15 -355 -40
-630 -6 -63 -15 -180 -21 -260 -20 -285 -36 -350 -108 -433 -65 -74 -278 -187
-391 -207 -103 -19 -112 -26 -39 -33 35 -3 107 -18 159 -31 75 -20 131 -27
268 -32 95 -4 174 -10 176 -13 2 -3 -21 -5 -52 -5 -32 1 -42 0 -24 -3 23 -3
32 -9 32 -24 0 -14 7 -19 25 -19 22 0 25 -4 25 -33 0 -18 -7 -55 -16 -81 -9
-26 -14 -49 -12 -52 11 -10 128 19 186 47 69 32 194 70 227 68 11 -1 0 -6 -24
-11 -33 -7 -41 -12 -30 -19 9 -7 4 -8 -16 -3 -21 4 -26 3 -16 -4 12 -9 12 -11
0 -15 -14 -5 0 -3 111 13 61 9 98 18 345 92 94 28 107 29 220 24 66 -3 145 -8
175 -11 l55 -5 -45 16 c-25 8 -72 19 -105 23 -58 8 -58 8 -15 10 26 0 85 -12
140 -30 75 -24 123 -32 230 -39 239 -16 340 -18 340 -10 0 16 -65 59 -149 100
-74 36 -220 127 -246 153 -5 5 11 -3 37 -18 26 -15 53 -25 59 -23 6 2 -23 19
-63 37 -123 57 -134 63 -205 112 -49 33 -79 63 -108 108 -22 34 -75 100 -117
146 -67 73 -80 93 -97 152 -11 38 -25 111 -31 163 -7 52 -23 154 -36 225 -40
215 -44 257 -59 590 -13 288 -18 345 -53 555 -22 129 -43 273 -46 320 -8 99
-25 180 -65 305 -33 103 -43 219 -46 580 -2 156 -8 247 -24 352 -19 129 -26
153 -71 245 -35 71 -50 113 -50 142 0 23 -5 86 -11 141 -11 94 -11 104 9 155
l21 55 2 -42 c1 -24 2 -47 3 -52 6 -45 45 26 56 103 7 44 9 48 16 26 7 -24 8
-24 19 10 l11 33 32 -56 c17 -30 35 -58 41 -61 12 -8 31 48 31 90 0 19 2 34 5
34 3 0 18 -14 34 -32 l29 -32 7 43 c4 26 10 39 15 32 4 -8 10 0 14 20 l6 32
23 -21 c13 -12 26 -22 29 -22 3 0 11 21 17 47 20 77 41 120 51 104 6 -11 13
-9 32 13 l23 28 -3 -45 c-7 -79 56 -113 115 -63 l29 24 -4 -36 -3 -37 36 39
35 39 0 -41 c0 -53 12 -59 43 -22 l26 30 7 -47 c9 -64 15 -71 30 -37 12 29 12
29 13 4 2 -33 39 -115 49 -106 4 4 12 26 18 49 l10 42 23 -50 c20 -44 24 -48
31 -29 5 12 11 42 15 68 l7 46 41 -35 c49 -42 55 -43 63 -9 5 18 10 22 17 15
21 -21 37 -12 37 20 0 31 1 31 35 26 34 -6 35 -5 35 26 0 18 -7 42 -15 54 -15
21 -14 21 32 20 39 -2 49 2 58 19 6 12 17 29 24 38 12 14 11 20 -7 39 l-21 23
24 26 c16 18 20 28 12 31 -7 3 7 8 31 12 l43 8 -31 32 c-20 21 -28 35 -21 39
17 11 14 138 -3 162 -8 10 -12 29 -9 41 4 17 0 25 -18 31 -21 8 -21 9 10 15
18 4 46 21 64 38 24 25 40 32 76 34 25 1 54 5 64 9 15 7 17 2 17 -34 0 -41 0
-41 33 -38 30 3 32 1 35 -29 4 -37 7 -38 42 -18 32 18 44 19 37 1 -7 -17 11
-86 22 -86 4 0 14 11 21 25 17 32 22 31 44 -5 21 -37 29 -33 52 25 16 42 18
44 34 30 16 -14 19 -14 32 7 26 41 40 86 33 106 -5 17 -2 19 15 15 21 -6 21
-5 6 32 -9 21 -16 46 -16 56 0 26 37 25 45 -1 l7 -21 33 21 33 20 5 -22 c4
-13 13 -32 20 -43 13 -17 17 -18 32 -5 16 14 17 13 11 -7 -6 -20 -3 -22 33
-25 l39 -3 -39 -95 c-21 -52 -39 -112 -39 -132 0 -35 2 -38 28 -38 24 1 60 12
115 35 14 6 17 2 17 -18 0 -42 19 -42 62 -1 l40 39 -6 -65 c-9 -84 4 -107 38
-68 l23 26 12 -38 c6 -21 20 -48 30 -61 l18 -23 14 37 c14 40 29 49 29 18 0
-30 52 -79 93 -86 42 -8 87 14 87 43 1 16 2 16 15 -1 13 -18 14 -17 30 7 13
20 16 41 13 85 -4 52 -2 58 14 53 31 -8 51 18 45 59 -5 37 -4 37 20 28 13 -5
35 -9 47 -9 19 0 22 4 18 25 -4 21 0 25 19 26 13 0 33 4 44 8 18 7 17 10 -14
26 -19 9 -53 23 -75 30 -34 11 -36 13 -15 14 14 1 41 6 58 12 l33 12 -30 14
c-20 10 -39 35 -61 78 -29 57 -38 66 -72 76 -21 7 -46 23 -54 35 -14 22 -14
24 9 30 53 13 78 73 36 84 -20 5 -15 8 27 14 28 4 59 13 69 21 16 12 16 13 -5
24 -19 11 -21 17 -15 56 5 38 3 47 -19 69 -15 14 -34 26 -43 26 -11 0 -14 5
-10 17 4 9 2 19 -4 23 -6 4 5 11 24 17 34 11 35 10 46 -23 18 -52 85 -59 130
-14 24 24 31 25 24 5 -8 -19 -5 -19 39 0 l35 14 -5 -39 c-5 -36 -3 -40 16 -40
30 0 91 27 118 52 l23 21 0 -36 c0 -20 4 -38 9 -41 13 -9 70 51 77 81 6 23 7
23 25 -16 50 -112 199 -22 199 122 0 14 -14 51 -30 83 -35 65 -34 99 5 132
l24 21 7 -37 c4 -20 9 -31 11 -24 11 31 22 5 29 -68 3 -44 11 -77 16 -74 5 3
16 23 24 45 9 21 20 37 24 34 12 -7 50 44 50 67 0 28 17 13 25 -22 12 -56 30
-35 41 51 4 32 10 46 15 38 5 -9 14 0 26 29 l18 43 30 -51 c32 -55 45 -63 45
-25 0 34 15 32 30 -5 7 -16 18 -35 26 -41 11 -9 14 -6 14 17 0 16 4 36 10 44
8 12 10 12 16 -4 7 -17 8 -17 24 4 l17 23 32 -22 c26 -19 31 -20 31 -6 0 12 6
10 23 -10 23 -27 77 -47 95 -36 19 11 -6 80 -38 110 -21 18 -27 30 -20 40 7
12 15 13 48 3 104 -32 170 -6 159 63 -5 30 -3 35 14 35 15 0 19 7 19 33 0 18
-7 43 -16 55 -14 20 -14 22 3 22 10 0 24 4 32 9 21 13 -56 89 -98 97 -17 4
-31 11 -31 16 0 5 4 7 9 3 5 -3 12 -2 15 3 3 5 -12 14 -32 22 l-37 13 45 19
c53 23 41 38 -29 38 l-44 0 22 24 22 24 -25 6 -25 6 25 37 c31 46 26 59 -20
55 -20 -2 -36 1 -36 7 0 5 16 28 35 51 38 46 42 55 21 47 -11 -4 -15 12 -18
74 -3 43 -7 82 -10 85 -4 3 -20 -2 -37 -10 -28 -15 -30 -15 -24 1 5 12 -5 8
-32 -13 l-38 -29 6 43 c9 55 -5 55 -66 1 l-47 -40 -6 40 c-4 23 -12 41 -18 41
-7 0 -30 -15 -52 -33 -21 -19 -45 -32 -52 -29 -8 2 -31 -13 -53 -34 -28 -28
-39 -33 -39 -21 0 23 -12 22 -27 -3 -7 -11 -29 -22 -50 -25 -59 -10 -126 -36
-152 -59 -17 -15 -25 -18 -28 -8 -4 9 -9 10 -18 2 -10 -8 -12 -2 -8 32 5 41
-7 132 -22 171 -5 13 -2 17 13 17 12 0 24 5 27 10 4 6 18 9 33 8 22 -3 27 2
37 35 6 21 16 42 23 46 7 4 21 30 32 57 l19 49 1 -55 c0 -71 16 -98 25 -47 10
54 25 55 25 3 0 -57 13 -59 37 -6 10 22 20 40 23 40 3 0 12 -15 19 -32 l13
-33 10 40 c14 52 14 52 43 25 l25 -23 0 36 c0 31 3 37 23 38 12 0 31 4 42 8
18 7 15 12 -27 38 l-47 30 32 16 c27 13 29 16 10 16 -42 2 -52 11 -46 42 4 22
2 29 -11 29 -11 0 -16 9 -16 28 0 44 -31 66 -85 60 -41 -5 -46 -3 -51 18 -3
12 -3 28 1 33 9 16 -17 13 -60 -5 -36 -15 -37 -14 -30 3 4 10 9 29 11 43 3 21
2 20 -11 -7 -11 -25 -22 -33 -40 -33 -26 0 -75 -39 -75 -59 0 -16 -82 -66
-103 -62 -11 1 -21 -7 -27 -23 -11 -30 -17 -32 -42 -9 -17 15 -19 13 -40 -35
-18 -40 -27 -50 -41 -46 -23 7 -57 -22 -58 -50 -1 -15 -4 -12 -11 12 -6 17
-14 32 -18 32 -4 0 -15 -15 -24 -32 -15 -31 -16 -32 -22 -10 -7 26 -19 29 -28
6 -6 -15 -9 -15 -29 5 -31 29 -72 27 -104 -5 -14 -14 -26 -24 -28 -22 -1 2 -7
11 -12 22 -10 17 -12 16 -28 -12 -17 -29 -21 -30 -70 -25 -56 6 -104 -13 -165
-63 -52 -44 -67 -40 -73 20 -3 35 -1 53 8 58 23 14 38 66 31 110 -6 36 -5 39
8 29 22 -18 33 -7 47 50 l13 51 23 -27 23 -27 15 36 c8 19 15 41 15 47 0 8 7
6 18 -4 10 -10 21 -17 24 -17 3 0 11 25 18 56 l14 56 15 -29 15 -28 12 43 c9
29 10 58 5 88 l-8 44 59 -65 c33 -36 64 -65 69 -65 5 0 9 10 9 23 0 20 4 22
45 19 33 -3 45 0 45 10 0 16 -28 58 -48 74 -11 8 -5 13 27 23 48 14 46 27 -4
37 -54 10 -50 20 13 31 100 19 262 94 262 121 0 5 -29 18 -64 31 -51 18 -63
26 -59 40 7 26 -18 32 -78 21 -29 -6 -53 -10 -55 -10 -2 0 -4 10 -4 23 0 49
-13 67 -59 88 -39 17 -51 19 -78 9 -26 -9 -38 -8 -60 3 -24 13 -29 13 -38 0
-9 -12 -17 -11 -55 11 -52 30 -60 31 -60 12 0 -10 -9 -12 -42 -5 -35 6 -46 5
-58 -9 -11 -13 -28 -16 -66 -14 -43 2 -57 -1 -80 -21 -27 -23 -30 -24 -60 -9
-42 20 -82 9 -90 -23 -7 -30 -6 -30 -72 -5 -64 25 -108 25 -126 3 -66 -81
-105 -131 -114 -150 -17 -32 -62 -203 -62 -236 0 -28 -1 -29 -41 -22 l-42 7 6
-28 c3 -16 9 -37 12 -46 6 -14 2 -18 -15 -18 -21 0 -22 -3 -18 -58 4 -58 4
-59 -26 -68 -27 -8 -32 -15 -39 -59 -5 -27 -8 -72 -8 -98 1 -28 -5 -58 -14
-70 -8 -12 -15 -32 -15 -46 0 -13 -7 -32 -16 -42 -8 -9 -21 -47 -27 -83 -6
-36 -14 -66 -18 -66 -4 0 -13 -16 -19 -35 -14 -43 -22 -44 -39 -2 l-14 32 -9
-62 c-7 -45 -13 -60 -23 -57 -9 4 -15 -4 -17 -23 -3 -24 -7 -28 -31 -25 -40 5
-75 -21 -82 -62 -7 -33 -9 -34 -41 -29 -32 5 -36 3 -47 -26 -10 -28 -15 -31
-37 -26 -96 26 -140 12 -140 -44 0 -25 -3 -27 -35 -23 -47 6 -80 -4 -104 -29
-11 -12 -24 -18 -29 -15 -16 10 -59 -32 -83 -81 l-23 -47 -9 27 -9 27 -31 -24
-31 -24 -23 50 -24 51 -30 -29 c-25 -24 -31 -26 -39 -14 -5 8 -10 17 -10 20 0
3 -7 14 -15 24 -14 18 -15 18 -33 -4 -17 -22 -19 -22 -64 -7 -83 29 -169 -17
-204 -109 l-16 -43 -30 15 c-37 19 -63 11 -77 -24 -11 -25 -15 -27 -63 -23
-48 3 -55 1 -78 -26 -17 -20 -38 -32 -64 -36 l-39 -6 32 27 c22 19 36 43 46
81 7 29 21 62 31 72 15 16 189 129 200 129 2 0 4 -9 4 -19 0 -18 3 -19 30 -9
17 5 53 30 81 55 46 43 50 44 43 19 -7 -31 1 -32 53 -11 44 19 41 19 45 -6 3
-20 7 -18 44 20 45 45 54 49 54 26 0 -27 17 -15 35 25 17 37 35 53 35 31 0
-13 34 -23 54 -15 9 4 24 20 32 36 28 55 99 135 137 154 34 18 47 8 47 -38 0
-23 4 -28 24 -28 14 0 28 -5 31 -11 5 -7 15 -3 30 11 l22 21 6 -31 c8 -38 31
-48 57 -25 16 14 24 15 53 6 57 -19 104 9 113 70 5 26 10 36 20 32 23 -9 36
43 20 81 -13 32 -13 34 10 45 23 10 30 27 36 81 2 20 9 26 36 28 28 3 32 7 32
33 0 28 1 29 50 29 58 0 63 11 31 73 -14 28 -16 37 -5 37 7 0 19 9 27 20 8 11
28 23 45 26 38 8 39 10 10 34 -21 17 -21 19 -5 25 9 4 17 17 17 29 0 25 -90
79 -115 70 -13 -5 -15 8 -15 95 0 56 -4 101 -9 101 -5 0 -43 -22 -85 -50 -42
-27 -78 -50 -80 -50 -2 0 -9 14 -16 30 -8 19 -20 30 -32 30 -20 0 -93 -35
-142 -69 -32 -22 -46 -19 -46 7 -1 9 -6 30 -13 45 l-12 29 -54 -36 c-30 -20
-55 -35 -56 -34 -1 2 -7 29 -15 60 l-13 57 -36 -15 c-20 -8 -51 -29 -68 -46
l-33 -32 0 32 c0 31 -1 32 -22 21 -13 -6 -42 -29 -65 -51 l-41 -41 -7 47 -7
47 -27 -37 -26 -37 -6 29 c-5 24 -7 26 -13 12 -13 -29 -26 -20 -26 17 0 19 -3
35 -7 35 -4 0 -22 -14 -40 -32 l-33 -32 0 38 0 38 -37 -28 c-21 -15 -39 -32
-41 -36 -9 -20 -21 -5 -24 30 -3 42 -15 44 -80 13 -36 -17 -37 -17 -28 0 6 10
10 29 10 43 0 14 5 26 10 26 6 0 10 -6 10 -12 0 -7 12 7 27 31 l26 45 14 -39
c20 -58 28 -60 48 -16 l18 40 30 -30 c34 -35 40 -31 67 37 14 37 20 45 25 32
9 -24 21 -23 28 2 7 27 23 25 43 -6 l17 -25 14 31 c7 18 13 42 13 54 0 20 1
20 19 -4 l19 -24 7 38 c4 20 5 58 1 82 -4 36 -1 54 16 87 22 42 23 42 26 14 4
-35 25 -44 56 -23 24 15 25 15 28 -17 2 -21 10 -35 24 -41 16 -7 23 -22 27
-50 7 -47 28 -66 73 -66 17 0 37 -7 44 -15 10 -12 15 -13 20 -4 6 8 17 5 39
-12 26 -19 34 -21 56 -11 14 7 32 26 39 43 8 19 16 27 20 20 13 -20 27 -12 43
26 26 64 1 187 -48 239 -20 22 -20 22 -1 28 10 4 51 39 90 80 44 45 73 68 76
60 3 -7 8 -40 12 -74 4 -33 10 -62 14 -65 9 -5 100 64 100 76 0 5 7 9 15 9 8
0 15 6 15 14 0 8 5 18 12 22 6 4 8 3 4 -4 -8 -14 4 -92 14 -92 5 0 14 14 22
30 14 32 28 40 28 16 0 -8 5 -27 10 -41 15 -40 37 -16 52 55 l12 59 30 -26 31
-26 9 26 10 26 47 -34 47 -35 7 36 6 37 55 -7 55 -6 -3 42 c-3 42 -3 42 36 49
60 10 96 55 96 120 0 43 -5 55 -29 80 -26 25 -27 29 -10 29 18 0 18 3 -6 50
l-25 50 46 0 c40 0 46 2 41 19 -3 15 6 21 54 36 32 9 57 20 54 25 -2 4 -29 15
-60 25 l-56 17 41 35 c22 19 47 47 55 62 14 27 13 28 -28 51 -23 13 -44 24
-46 26 -2 2 6 15 17 31 23 32 52 99 52 119 0 9 -16 4 -50 -16 l-50 -29 0 44
c0 55 -11 85 -54 141 -19 25 -36 50 -38 56 -7 21 -47 -3 -107 -64 -49 -50 -61
-58 -61 -41 0 12 -3 29 -6 38 -6 14 -12 11 -39 -15 l-33 -32 -16 31 c-14 26
-20 30 -36 21 -32 -17 -40 -12 -40 26 0 50 27 104 52 104 16 0 19 5 15 20 -4
15 3 27 24 42 l29 22 -29 12 c-19 8 -33 24 -41 49 -12 36 -12 36 -37 19 -24
-15 -26 -15 -35 1 -9 15 -12 15 -32 -4 l-22 -21 -29 30 c-36 38 -56 38 -99 -1
l-35 -30 -40 20 c-51 27 -59 26 -67 -3 -5 -22 -9 -23 -37 -15 -60 17 -119 -15
-103 -57 6 -17 4 -17 -28 -3 -33 15 -75 4 -86 -24 -5 -12 -9 -16 -9 -9 -2 25
-19 11 -26 -20 l-7 -33 -9 29 c-15 54 -40 58 -80 15 -24 -26 -29 -28 -29 -13
-1 11 -7 30 -14 44 l-14 25 -13 -28 c-15 -34 -20 -34 -41 3 -13 23 -24 30 -48
30 -31 0 -80 -37 -80 -61 0 -8 -7 -6 -18 4 -25 23 -35 21 -72 -9 -35 -30 -60
-73 -60 -104 0 -16 -17 0 -58 57 -33 43 -68 86 -80 97 -21 18 -22 18 -32 -8
-5 -15 -10 -33 -11 -39 0 -7 -5 -2 -11 11 -6 12 -15 22 -19 22 -16 0 -42 -65
-49 -120 -6 -52 -7 -53 -19 -30 l-11 25 3 -27 c4 -28 -6 -37 -18 -18 -8 13
-25 13 -25 -1 0 -6 -11 -25 -25 -41 -17 -20 -23 -37 -20 -49 6 -19 5 -19 -46
1 -67 27 -113 24 -117 -7 -2 -15 -10 -23 -23 -23 -12 0 -19 -7 -19 -20 0 -13
-7 -20 -19 -20 -31 0 -32 14 -6 51 35 52 40 76 15 84 -27 9 -103 9 -130 0 -19
-6 -18 -4 4 18 31 31 42 71 28 102 -6 13 -8 39 -5 58 l5 35 48 -34 c26 -19 52
-34 58 -34 12 0 28 45 37 108 7 42 7 43 30 28 21 -14 23 -14 29 7 3 12 6 36 7
52 1 18 3 23 6 12 6 -25 25 -17 43 19 l15 29 22 -22 c30 -30 64 -29 104 4 33
28 68 94 69 129 0 18 26 48 72 82 15 12 16 9 11 -27 -6 -45 2 -91 17 -91 5 0
25 21 45 46 35 46 35 47 35 18 l0 -29 19 24 19 25 4 -24 3 -24 37 32 36 33 7
-31 c8 -37 15 -37 45 -4 l24 25 23 -58 c19 -49 23 -55 29 -35 9 30 24 28 24
-4 0 -59 54 10 69 88 l8 43 12 -30 c7 -16 17 -36 24 -43 15 -19 25 7 27 68 l0
45 19 -24 19 -24 16 31 c9 17 16 39 16 49 1 12 5 7 14 -12 7 -17 25 -36 40
-43 25 -11 26 -10 26 16 l0 27 20 -32 c21 -36 66 -63 104 -63 23 0 24 2 16 31
-5 17 -16 42 -25 55 -19 29 -19 34 0 34 18 0 19 12 4 27 -9 9 -4 18 20 38 17
15 31 36 31 49 0 18 6 21 39 21 43 0 81 26 81 56 0 12 10 21 27 25 23 6 24 8
9 19 -15 11 -13 15 21 36 l38 22 -35 10 c-46 14 -45 13 -26 41 22 34 22 35
-24 42 -36 6 -40 9 -40 36 0 30 -4 33 -60 42 -62 11 -69 22 -32 52 30 24 32
28 18 43 -13 15 -13 22 1 71 12 41 13 58 4 72 -6 10 -11 36 -11 58 0 30 -4 40
-14 38 -7 -2 -23 8 -34 22 l-20 25 -24 -22 c-13 -13 -33 -23 -44 -23 -26 0
-38 -10 -57 -45 l-16 -30 -1 28 0 29 -44 -26 -43 -25 -12 27 c-12 26 -13 26
-27 7 -10 -13 -14 -15 -14 -4 0 18 -48 89 -60 89 -5 0 -12 -10 -16 -22 l-7
-22 -21 25 c-17 19 -31 24 -73 25 -56 2 -63 -5 -63 -70 0 -27 -1 -28 -18 -13
-10 9 -35 23 -55 32 -37 15 -37 15 -47 -10 -6 -15 -10 -43 -10 -63 0 -28 -3
-33 -12 -24 -15 15 -63 15 -91 0 -12 -6 -38 -11 -58 -9 -40 3 -53 -14 -43 -54
5 -21 3 -23 -28 -22 -30 2 -33 -1 -36 -31 -3 -26 -6 -31 -20 -23 -9 4 -29 11
-44 15 -26 6 -28 4 -28 -24 0 -20 9 -40 26 -57 16 -16 23 -31 19 -42 -6 -14
-8 -13 -15 4 -13 35 -37 48 -74 41 -27 -5 -35 -3 -38 9 -3 14 -10 13 -50 -8
l-48 -24 0 28 c0 16 -1 29 -3 29 -1 0 -17 -4 -36 -10 -33 -9 -33 -9 -29 20 5
34 -4 37 -44 16 -25 -13 -26 -13 -31 18 -3 21 0 34 11 40 9 5 36 27 60 50 l44
40 18 -24 c18 -24 20 -24 32 -7 12 17 15 17 46 2 17 -9 41 -14 51 -10 11 3 43
35 71 71 28 35 57 64 65 64 8 0 12 6 9 13 -3 8 12 17 41 26 42 12 61 30 33 31
-7 1 7 11 31 23 25 12 51 32 59 44 13 21 12 23 -12 32 -25 10 -25 11 -10 47
17 42 14 47 -40 64 l-39 13 47 18 c27 10 51 20 53 23 3 3 -9 17 -27 32 l-32
28 26 19 c33 23 33 33 1 41 l-25 6 40 41 c22 23 40 45 40 49 0 13 -40 20 -120
21 -41 1 -88 4 -105 8 l-30 6 38 23 c21 14 37 32 37 42 0 10 4 21 9 24 5 3 11
24 13 47 4 40 3 41 -24 35 -21 -4 -28 -1 -33 14 -8 25 -21 25 -34 3 -9 -15
-10 -13 -11 14 0 17 -4 43 -10 58 l-10 26 -31 -23 c-17 -13 -41 -43 -53 -67
l-23 -44 -22 32 c-28 39 -35 39 -51 0 l-13 -31 -30 48 -30 48 -21 -25 -21 -25
-32 39 -32 38 -28 -42 -27 -41 -9 26 c-11 33 -25 33 -33 1 -3 -14 -9 -25 -13
-24 -3 0 -19 19 -36 41 -32 45 -67 73 -102 83 -19 5 -24 0 -34 -35 -10 -32
-17 -40 -33 -38 -17 2 -24 -6 -36 -40 -12 -36 -18 -42 -35 -37 -52 17 -65 16
-92 -3 -19 -13 -38 -18 -56 -15 -31 6 -57 -11 -57 -38 0 -22 0 -22 -34 -9 -24
9 -26 8 -20 -14 4 -18 1 -25 -15 -29 -12 -3 -21 -12 -21 -21 0 -25 -26 -19
-44 9 -10 14 -27 31 -40 36 -21 10 -22 13 -12 60 14 68 -5 105 -53 102 -36 -1
-34 -8 -14 74 l6 27 -31 -22 c-38 -28 -39 -28 -47 8 -8 35 -22 47 -38 31 -6
-6 -13 -11 -17 -11 -3 0 -5 48 -6 108 0 85 -5 118 -23 164 -28 73 -90 131
-162 152 -83 25 -95 22 -103 -23z m582 -779 c17 -11 4 -42 -14 -35 -8 3 -14
14 -14 24 0 20 8 23 28 11z m77 -219 c-4 -10 -10 -26 -12 -35 -7 -23 -15 -23
-31 2 -7 11 -19 20 -27 20 -16 0 -20 12 -8 23 3 4 24 7 46 7 33 0 38 -3 32
-17z m125 -77 c0 -1 -9 -19 -20 -41 -11 -22 -20 -48 -20 -58 0 -19 10 -19 72
-1 11 3 17 -2 20 -18 3 -22 6 -23 82 -19 l79 3 -6 -36 c-4 -24 -2 -36 6 -36 7
0 -7 -17 -31 -36 -38 -32 -102 -113 -102 -129 0 -3 10 -3 23 0 14 4 7 -4 -18
-22 l-40 -28 33 -3 34 -3 -70 -67 c-67 -65 -113 -142 -76 -128 63 24 102 28
128 11 14 -10 26 -22 26 -28 0 -5 7 -15 16 -22 15 -10 14 -14 -8 -40 -20 -23
-35 -29 -82 -33 -44 -3 -61 -1 -75 12 -21 19 -45 23 -78 12 -22 -7 -23 -5 -23
43 0 46 -2 51 -23 51 -12 0 -37 -4 -55 -9 -29 -9 -32 -8 -32 13 0 20 -6 24
-41 29 -54 7 -58 14 -26 40 14 12 33 35 41 52 15 28 14 30 -8 40 l-24 10 18
45 c11 25 19 38 19 29 1 -9 8 -22 16 -29 13 -11 20 -9 40 10 14 13 25 30 25
39 0 11 3 12 12 3 26 -26 78 49 62 91 -4 12 2 20 20 28 15 7 29 24 33 38 9 37
-33 111 -79 136 -29 16 -34 24 -27 37 7 13 24 16 84 16 41 -1 75 -2 75 -2z
m28 -778 c-5 -15 -23 -11 -26 6 -2 11 2 14 13 10 9 -4 14 -11 13 -16z m272
-1587 c0 -4 -9 -20 -21 -35 l-20 -26 27 0 27 0 -24 -26 -24 -25 -12 48 c-18
68 -17 73 17 73 17 0 30 -4 30 -9z m139 -251 l40 20 -6 -35 c-7 -42 -2 -43 43
-9 l34 26 0 -41 c0 -33 4 -41 18 -41 26 0 60 27 78 62 11 21 19 27 26 20 13
-13 -35 -93 -79 -133 -67 -61 -125 -87 -213 -97 -47 -5 -87 -8 -89 -6 -2 2 -6
49 -9 104 l-5 100 26 0 c14 0 39 11 54 24 27 23 28 24 35 5 7 -19 8 -19 47 1z
m-3374 -270 c-3 -5 -11 -10 -16 -10 -6 0 -7 5 -4 10 3 6 11 10 16 10 6 0 7 -4
4 -10z m3793 -441 c-24 -16 -29 -9 -23 29 11 64 17 69 27 23 8 -34 7 -46 -4
-52z m-128 -8089 c-8 -5 -26 -9 -40 -9 -23 1 -23 2 5 9 43 11 52 11 35 0z"/>
<path d="M6098 493 c7 -3 16 -2 19 1 4 3 -2 6 -13 5 -11 0 -14 -3 -6 -6z"/>
</g>
</svg>
